<?xml version="1.0" encoding="UTF-8"?>
<svg width="600" height="400" viewBox="0 0 600 400" xmlns="http://www.w3.org/2000/svg">
    <!-- Plane -->
    <g id="plane" fill="white" opacity="0.7">
        <path d="M20,20 l15,5 l-15,5 l3,-5 z"/>
    </g>
    
    <!-- Palm Tree -->
    <g id="palm" fill="white" opacity="0.7">
        <path d="M50,50 c0,0 5,-10 0,-20 c-5,10 -5,10 -5,20 l2.5,10 l-2.5,0 l2.5,10 z"/>
        <path d="M45,35 c0,0 -10,-5 -15,5 c10,0 15,-5 15,-5"/>
        <path d="M55,40 c0,0 10,-5 15,5 c-10,0 -15,-5 -15,-5"/>
    </g>
    
    <!-- Compass -->
    <g id="compass" fill="white" opacity="0.7">
        <circle cx="90" cy="40" r="8" fill="none" stroke="white" stroke-width="1"/>
        <path d="M90,32 l2,6 l-2,2 l-2,-2 z"/>
    </g>
    
    <!-- Suitcase -->
    <g id="suitcase" fill="white" opacity="0.7">
        <path d="M120,40 h12 v10 h-12 z"/>
        <rect x="122" y="38" width="8" height="2"/>
    </g>
    
    <!-- Camera -->
    <g id="camera" fill="white" opacity="0.7">
        <path d="M150,40 h10 v8 h-10 z"/>
        <rect x="153" y="38" width="4" height="2"/>
        <circle cx="155" cy="44" r="2"/>
    </g>
</svg>
