<?xml version="1.0" encoding="UTF-8"?>
<svg width="200" height="200" viewBox="0 0 200 200" xmlns="http://www.w3.org/2000/svg">
    <!-- Plane 1 -->
    <path d="M40 40l15 5-15 5 3-5z" fill="white" opacity="0.6"/>
    
    <!-- Palm Tree 1 -->
    <g transform="translate(100, 40)">
        <path d="M0 0c0 0 5-10 0-20c-5 10-5 10-5 20l2.5 10h-2.5l2.5 10z" fill="white" opacity="0.4"/>
        <path d="M-5-15c0 0-10-5-15 5c10 0 15-5 15-5" fill="white" opacity="0.4"/>
        <path d="M5-10c0 0 10-5 15 5c-10 0-15-5-15-5" fill="white" opacity="0.4"/>
    </g>
    
    <!-- Compass 1 -->
    <g transform="translate(160, 40)">
        <circle cx="0" cy="0" r="8" fill="none" stroke="white" stroke-width="1" opacity="0.5"/>
        <path d="M0-8l2 6-2 2-2-2z" fill="white" opacity="0.5"/>
    </g>
    
    <!-- Plane 2 -->
    <path d="M140 140l15 5-15 5 3-5z" fill="white" opacity="0.6" transform="rotate(180 140 140)"/>
    
    <!-- Palm Tree 2 -->
    <g transform="translate(40, 140)">
        <path d="M0 0c0 0 5-10 0-20c-5 10-5 10-5 20l2.5 10h-2.5l2.5 10z" fill="white" opacity="0.4"/>
        <path d="M-5-15c0 0-10-5-15 5c10 0 15-5 15-5" fill="white" opacity="0.4"/>
        <path d="M5-10c0 0 10-5 15 5c-10 0-15-5-15-5" fill="white" opacity="0.4"/>
    </g>
    
    <!-- Compass 2 -->
    <g transform="translate(100, 140)">
        <circle cx="0" cy="0" r="8" fill="none" stroke="white" stroke-width="1" opacity="0.5"/>
        <path d="M0-8l2 6-2 2-2-2z" fill="white" opacity="0.5"/>
    </g>
</svg>
