<?xml version="1.0" encoding="UTF-8"?>
<svg width="800" height="400" viewBox="0 0 800 400" xmlns="http://www.w3.org/2000/svg">
    <g fill="#FFFFFF">
        <!-- North America -->
        <circle cx="200" cy="120" r="3" />
        <circle cx="180" cy="140" r="3" />
        <circle cx="220" cy="130" r="3" />
        <circle cx="240" cy="150" r="3" />
        <circle cx="190" cy="160" r="3" />
        <!-- South America -->
        <circle cx="250" cy="250" r="3" />
        <circle cx="270" cy="270" r="3" />
        <circle cx="240" cy="290" r="3" />
        <!-- Europe -->
        <circle cx="400" cy="120" r="3" />
        <circle cx="420" cy="110" r="3" />
        <circle cx="440" cy="130" r="3" />
        <!-- Africa -->
        <circle cx="420" cy="200" r="3" />
        <circle cx="440" cy="220" r="3" />
        <circle cx="400" cy="240" r="3" />
        <!-- Asia -->
        <circle cx="500" cy="150" r="3" />
        <circle cx="550" cy="140" r="3" />
        <circle cx="600" cy="160" r="3" />
        <circle cx="580" cy="180" r="3" />
        <!-- Australia -->
        <circle cx="650" cy="280" r="3" />
        <circle cx="670" cy="300" r="3" />
    </g>
</svg>
